<svg viewBox="0 0 100 100" xmlns="http://www.w3.org/2000/svg" fill-rule="evenodd" clip-rule="evenodd" stroke-linejoin="round" stroke-miterlimit="1.414"><path d="M31.466 77.435c-5.18 0-9.393 4.214-9.393 9.393 0 5.18 4.214 9.393 9.393 9.393 5.18 0 9.393-4.21 9.393-9.39 0-5.18-4.217-9.392-9.397-9.392zm0 13.086c-2.034 0-3.688-1.66-3.688-3.69s1.654-3.69 3.688-3.69c2.035 0 3.69 1.655 3.69 3.69 0 2.034-1.655 3.69-3.69 3.69v.004zM75.16 77.43c-5.18 0-9.392 4.215-9.392 9.394 0 5.18 4.214 9.393 9.393 9.393 5.187 0 9.397-4.213 9.397-9.393 0-5.18-4.21-9.393-9.393-9.393zm0 13.087c-2.034 0-3.688-1.658-3.688-3.693 0-2.034 1.654-3.69 3.69-3.69 2.034 0 3.688 1.656 3.688 3.69 0 2.035-1.65 3.69-3.69 3.69v.003zm20.726-74.33c-.54-.638-1.336-1.005-2.173-1.005h-73.78l-1.305-6c-.004-.027-.02-.052-.023-.076-.026-.103-.063-.198-.095-.295-.032-.08-.057-.163-.095-.24-.038-.085-.09-.163-.137-.243-.047-.08-.09-.16-.146-.234-.054-.075-.114-.14-.177-.21-.06-.065-.12-.135-.19-.2-.065-.055-.133-.11-.206-.16-.085-.056-.16-.12-.245-.17-.065-.04-.133-.07-.204-.105-.103-.05-.21-.103-.316-.14-.02-.006-.038-.02-.063-.025L7.18 3.917c-1.5-.498-3.11.318-3.606 1.813-.494 1.495.318 3.11 1.812 3.608l8.01 2.648 1.444 6.65v.01l2.438 11.217 6.107 28.09-2.563 12.074v.008c-.042.19-.063.384-.063.585v.025c0 .057.012.11.015.164.01.15.025.294.058.44.01.06.038.12.057.18.04.13.077.264.137.385.028.065.066.124.1.19.063.114.13.22.206.324.024.03.038.06.06.09.027.037.063.056.092.09.08.095.17.18.262.26.057.05.118.1.18.147.103.075.21.138.324.2.065.03.124.07.19.098.135.057.268.1.407.138.056.02.106.038.16.05.195.038.398.066.607.066h60.59c1.58 0 2.853-1.278 2.853-2.853 0-1.574-1.274-2.852-2.852-2.852h-57.06l1.517-7.143 59.57-4.59c.07-.004.13-.025.198-.037.103-.013.207-.026.31-.053.1-.028.194-.065.283-.103.077-.03.153-.054.226-.088.104-.05.2-.114.296-.17.057-.04.114-.073.17-.115.09-.067.172-.145.258-.225.048-.05.1-.095.147-.144.077-.08.134-.17.2-.26.043-.06.09-.12.128-.188.057-.095.1-.19.145-.285.033-.077.067-.144.094-.218.038-.107.063-.218.087-.328.017-.06.04-.12.05-.185l3.84-23.66c.04-.14.06-.287.07-.433l1.795-11.067c.135-.822-.097-1.666-.64-2.303l-.005.01zM85.552 50.52L28.57 54.913l-4.955-22.78H88.53L85.548 50.52h.004zm3.91-24.09h-67.08l-1.206-5.543h69.187l-.9 5.544z" fill-rule="nonzero"/></svg>