<svg viewBox="0 0 100 100" xmlns="http://www.w3.org/2000/svg" fill-rule="evenodd" clip-rule="evenodd" stroke-linejoin="round" stroke-miterlimit="1.414"><path d="M31.466 77.435c-5.18 0-9.393 4.214-9.393 9.393 0 5.18 4.214 9.393 9.393 9.393 5.18 0 9.393-4.213 9.393-9.392 0-5.18-4.214-9.393-9.394-9.393zm0 13.086c-2.034 0-3.688-1.66-3.688-3.694s1.654-3.69 3.688-3.69c2.035 0 3.69 1.656 3.69 3.69 0 2.035-1.655 3.69-3.69 3.69v.005zM75.16 77.43c-5.18 0-9.392 4.215-9.392 9.394 0 5.18 4.214 9.393 9.393 9.393 5.184 0 9.394-4.213 9.394-9.393 0-5.18-4.21-9.393-9.393-9.393zm0 13.087c-2.034 0-3.688-1.658-3.688-3.693 0-2.034 1.654-3.69 3.69-3.69 2.034 0 3.688 1.656 3.688 3.69 0 2.035-1.65 3.69-3.69 3.69v.003zm20.726-74.33c-.54-.638-1.336-1.005-2.173-1.005h-73.78l-1.305-6c-.004-.027-.02-.052-.023-.076-.026-.103-.063-.198-.095-.295-.032-.083-.057-.166-.095-.243-.038-.085-.09-.163-.137-.243-.047-.08-.09-.16-.146-.234-.054-.076-.114-.14-.177-.21-.06-.066-.12-.136-.19-.2-.065-.056-.133-.11-.206-.16-.082-.057-.158-.12-.242-.17-.065-.04-.133-.072-.204-.106-.104-.05-.21-.103-.317-.14-.02-.006-.038-.02-.063-.025L7.18 3.917c-1.5-.498-3.11.318-3.606 1.813-.494 1.495.318 3.11 1.812 3.608l8.01 2.648 1.444 6.65v.01l2.438 11.217 6.107 28.09-2.563 12.074v.008c-.042.19-.063.384-.063.585v.025c0 .057.015.11.018.164.01.15.025.297.058.44.01.06.038.12.057.18.038.133.076.267.136.388.028.065.066.124.1.19.063.114.13.22.206.324.024.028.038.06.06.09.027.037.063.056.092.09.08.095.17.18.262.26.057.05.118.1.18.147.103.075.21.138.324.2.063.03.122.07.19.098.133.057.266.1.405.138.056.02.106.038.16.05.195.038.398.066.607.066h60.59c1.58 0 2.853-1.277 2.853-2.852 0-1.574-1.274-2.852-2.852-2.852H27.146l1.516-7.143 59.57-4.59c.068-.004.13-.025.197-.037.104-.013.208-.026.31-.053.102-.028.195-.065.284-.103.076-.028.152-.053.225-.087.105-.05.2-.114.297-.17.057-.04.114-.073.17-.115.09-.067.172-.145.258-.225.047-.05.1-.095.146-.144.077-.08.134-.17.2-.26.043-.06.09-.117.128-.186.057-.095.1-.19.145-.285.034-.077.068-.144.095-.218.038-.106.063-.217.087-.327.016-.06.038-.118.05-.184l3.84-23.66c.04-.14.058-.286.07-.432l1.794-11.067c.136-.822-.096-1.666-.64-2.303l-.004.01zM85.552 50.52L28.57 54.913l-4.955-22.78H88.53L85.548 50.52h.004zm3.91-24.09h-67.08l-1.206-5.543h69.187l-.9 5.544z" fill-rule="nonzero"/></svg>