<svg xmlns="http://www.w3.org/2000/svg" viewBox="0 0 100 100"><path d="M40.252 64.427c-2.725 0-4.94 2.216-4.94 4.94s2.216 4.94 4.94 4.94 4.94-2.216 4.94-4.94-2.216-4.94-4.94-4.94zm0 6.882c-1.07 0-1.94-.872-1.94-1.942s.87-1.94 1.94-1.94c1.07 0 1.94.87 1.94 1.94s-.87 1.94-1.94 1.94zm22.98-6.883c-2.725 0-4.94 2.216-4.94 4.94s2.216 4.94 4.94 4.94c2.726 0 4.94-2.216 4.94-4.94s-2.214-4.94-4.94-4.94zm0 6.882c-1.07 0-1.94-.872-1.94-1.942s.87-1.94 1.94-1.94c1.07 0 1.94.87 1.94 1.94s-.868 1.94-1.94 1.94zm10.9-39.092c-.285-.335-.703-.528-1.143-.528H34.187l-.686-3.156c-.003-.014-.01-.027-.013-.04-.014-.054-.033-.104-.05-.155-.017-.044-.03-.088-.05-.128-.02-.044-.047-.085-.072-.127-.025-.042-.048-.084-.077-.123-.027-.04-.06-.073-.092-.108-.032-.036-.063-.073-.1-.106-.034-.03-.07-.058-.108-.085-.042-.03-.082-.063-.126-.09-.034-.02-.07-.037-.107-.055-.055-.027-.11-.054-.167-.074-.01-.004-.02-.01-.032-.014l-5.025-1.662c-.788-.262-1.636.167-1.896.953s.167 1.636.953 1.897l4.213 1.393.76 3.497v.005l1.282 5.9 3.212 14.773-1.348 6.35v.004c-.022.1-.033.202-.033.308v.013c0 .03.008.058.01.086.005.08.013.157.03.232.006.032.02.063.03.095.02.07.04.138.072.203.015.034.035.065.053.1.033.06.068.115.108.17.013.015.02.032.032.047.014.018.033.03.048.047.043.05.09.094.138.136.03.027.062.054.095.078.053.04.11.073.17.105.032.017.063.037.098.052.07.03.14.054.214.074.03.01.056.02.084.026.103.022.21.036.32.036H67.99c.83 0 1.5-.672 1.5-1.5s-.67-1.5-1.5-1.5H37.98l.797-3.757 31.33-2.413c.035-.003.067-.014.103-.02.055-.007.11-.014.163-.028.054-.015.103-.034.15-.054.04-.015.08-.028.118-.046.055-.026.105-.06.156-.09.03-.02.06-.038.09-.06.047-.035.09-.076.135-.118.025-.025.053-.05.077-.075.04-.043.072-.09.105-.137.023-.032.048-.062.068-.098.03-.048.053-.1.076-.15.018-.038.036-.074.05-.113.02-.056.033-.114.046-.172.008-.032.02-.062.026-.097l2.02-12.444c.02-.073.03-.15.036-.227l.944-5.82c.072-.433-.05-.877-.336-1.212zm-5.435 18.057l-29.968 2.31-2.605-11.98h34.14l-1.568 9.67zm2.057-12.67h-35.28l-.634-2.915h36.387l-.473 2.916z"/></svg>