<svg viewBox="0 0 100 100" xmlns="http://www.w3.org/2000/svg" fill-rule="evenodd" clip-rule="evenodd" stroke-linecap="round" stroke-linejoin="round" stroke-miterlimit="1.414"><path d="M31.466 77.435c-5.18 0-9.393 4.214-9.393 9.393 0 5.18 4.214 9.393 9.393 9.393 5.18 0 9.393-4.21 9.393-9.39 0-5.18-4.217-9.392-9.397-9.392l.003-.003zm43.694-.005c-5.18 0-9.392 4.215-9.392 9.394 0 5.18 4.214 9.393 9.393 9.393 5.187 0 9.397-4.213 9.397-9.393 0-5.18-4.21-9.393-9.393-9.393h-.004zM31.466 90.52v.004-.003c2.035 0 3.69-1.656 3.69-3.69 0-2.035-1.655-3.69-3.69-3.69-2.034 0-3.688 1.657-3.688 3.69 0 2.03 1.654 3.69 3.688 3.69zm43.694-.003c-2.034 0-3.688-1.658-3.688-3.693 0-2.034 1.654-3.69 3.69-3.69 2.034 0 3.688 1.656 3.688 3.69 0 2.035-1.65 3.69-3.69 3.69v.003zm7.262-75.335h11.29c.838 0 1.634.367 2.174 1.005v-.005l.003-.01c.543.637.775 1.48.64 2.303l-1.796 11.067c-.01.146-.03.293-.07.433l-3.84 23.66c-.01.066-.033.124-.05.184-.024.11-.05.22-.087.327-.027.074-.06.14-.094.218-.045.095-.088.19-.145.285-.037.068-.085.128-.127.188-.066.09-.123.18-.2.26-.046.05-.098.094-.146.144-.086.08-.168.158-.258.225-.056.042-.113.075-.17.115-.097.056-.192.12-.297.17-.074.034-.15.06-.227.087-.09.037-.183.074-.283.102-.103.027-.207.04-.31.053-.068.012-.128.033-.198.037l-59.57 4.59-1.517 7.143h57.06c1.578 0 2.852 1.278 2.852 2.852 0 1.575-1.273 2.852-2.853 2.852h-60.59c-.21 0-.412-.03-.607-.067-.054-.012-.104-.03-.16-.05-.14-.038-.272-.08-.406-.138-.066-.028-.125-.068-.19-.098-.113-.062-.22-.125-.323-.2-.062-.048-.123-.098-.18-.148-.092-.08-.182-.165-.262-.26-.03-.034-.065-.053-.092-.09-.022-.03-.036-.06-.06-.09-.076-.105-.143-.21-.206-.325-.034-.066-.072-.125-.1-.19-.06-.12-.097-.256-.137-.386-.02-.06-.047-.12-.057-.18-.033-.146-.048-.29-.058-.44-.003-.055-.016-.108-.016-.165v-.025c0-.2.02-.395.062-.585v-.008l2.563-12.074-6.107-28.09-2.438-11.217v-.01l-1.444-6.65-8.01-2.648C3.892 8.84 3.08 7.225 3.574 5.73 4.07 4.235 5.68 3.42 7.18 3.917l9.55 3.166c.026.005.044.02.064.025.107.037.213.09.317.14.072.035.14.065.205.105.084.05.16.114.244.17.072.05.14.105.205.16.07.065.13.135.19.2.063.07.123.135.177.21.056.074.1.154.146.234.047.08.1.158.137.244.038.077.063.16.095.24.032.098.07.193.095.296.003.024.02.05.023.076l1.305 6h19.125c-.658 1.807-1.097 3.72-1.283 5.705h-16.6l1.207 5.543h15.535c.29 1.995.84 3.908 1.608 5.703h-15.91l4.955 22.78 56.982-4.393h-.004l2.982-18.387h-6.575c.77-1.795 1.317-3.708 1.61-5.703h5.897l.9-5.543h-6.656c-.187-1.985-.625-3.898-1.284-5.705z"/><path d="M60.74 46.135h-.15l-.148-.002-.148-.003-.15-.003-.147-.004-.148-.006-.15-.005-.146-.007-.147-.01-.147-.007-.147-.01-.147-.01-.146-.012-.146-.012-.146-.014-.145-.015-.145-.015-.145-.015-.145-.018-.144-.018-.145-.02-.144-.02-.144-.02-.143-.022-.143-.022-.143-.023-.143-.024-.14-.026-.143-.025-.14-.03-.143-.026-.14-.03-.14-.027-.14-.03-.142-.032-.14-.032-.138-.032-.138-.032-.14-.034-.138-.037-.138-.035-.137-.037-.138-.037-.137-.04-.137-.038-.135-.04-.136-.04-.136-.043-.136-.043-.135-.043-.134-.044-.135-.045-.133-.044-.134-.047-.133-.048-.133-.048-.133-.048-.132-.05-.132-.05-.13-.052-.13-.053-.132-.05-.13-.055-.13-.054-.128-.055-.13-.056-.128-.057-.127-.058-.127-.058-.127-.058-.127-.06-.127-.062-.126-.06-.125-.063-.125-.062-.124-.064-.124-.064-.125-.065-.123-.065-.123-.066-.124-.068-.122-.068-.12-.068-.122-.07-.12-.07-.12-.07-.12-.07-.12-.073-.118-.072-.12-.073-.116-.073-.117-.075-.116-.077-.116-.075-.116-.077-.115-.077-.116-.078-.113-.08-.114-.078-.113-.08-.113-.08-.112-.083-.112-.082-.11-.082-.11-.083-.112-.085-.11-.084-.107-.086-.11-.086-.108-.086-.107-.088-.108-.088-.106-.088-.105-.09-.108-.088-.104-.09-.104-.093-.105-.09-.104-.093-.103-.093-.102-.094-.1-.095-.102-.093-.1-.095-.1-.096-.1-.096-.098-.097-.098-.098-.097-.098-.097-.1-.096-.098-.097-.1-.094-.102-.095-.1-.093-.1-.093-.105-.095-.102-.092-.102-.092-.104-.09-.104-.09-.106-.09-.105-.09-.106-.088-.108-.087-.106-.087-.108-.087-.108-.084-.11-.086-.107-.084-.11-.085-.11-.082-.112-.082-.11-.083-.113-.08-.113-.082-.112-.08-.115-.078-.113-.08-.115-.077-.114-.078-.114-.077-.116-.076-.117-.075-.116-.076-.117-.073-.12-.073-.116-.072-.12-.073-.118-.07-.12-.07-.12-.07-.12-.07-.122-.07-.12-.067-.122-.066-.123-.067-.124-.066-.123-.065-.124-.065-.125-.062-.124-.063-.124-.062-.126-.062-.125-.06-.126-.06-.13-.058-.126-.06-.127-.056-.13-.057-.127-.056-.128-.054-.13-.053-.13-.054-.13-.054-.13-.052-.13-.052-.13-.05-.132-.05-.133-.05-.13-.046-.134-.05-.133-.045-.134-.045-.134-.045-.134-.044-.134-.042-.135-.043-.136-.04-.136-.043-.135-.04-.137-.04-.137-.037-.138-.037-.137-.038-.138-.036-.137-.036-.138-.034-.14-.034-.138-.032-.14-.032-.14-.03-.14-.03-.14-.03-.14-.03-.142-.027-.14-.026-.14-.027-.144-.024-.142-.026-.142-.023-.143-.022-.142-.02-.143-.02-.144-.02-.143-.02-.143-.017-.145-.017-.145-.016-.146-.016-.146-.013-.145-.013-.146-.012-.146-.012-.147-.01-.145-.01-.147-.01-.147-.007-.146-.007-.147-.007-.148-.005-.15-.004-.148-.003-.148-.002-.15-.002-.147v-.3l.002-.148.002-.15.004-.148.005-.148.004-.148.006-.147.007-.15.007-.146.01-.147.01-.146.01-.146.012-.146.012-.146.013-.146.014-.146.017-.145.016-.145.018-.145.018-.144.02-.143.02-.144.02-.144.02-.143.023-.144.024-.142.025-.142.023-.142.026-.14.025-.143.028-.14.028-.142.03-.14.03-.14.032-.14.032-.14.032-.14.034-.138.034-.138.035-.138.035-.14.038-.136.037-.138.038-.136.04-.137.04-.137.04-.136.043-.136.044-.134.042-.135.044-.133.045-.135.046-.134.047-.133.05-.132.046-.133.05-.133.05-.132.05-.13.05-.132.053-.13.053-.13.053-.13.053-.13.055-.13.057-.13.057-.127.057-.13.06-.126.06-.127.058-.126.06-.126.062-.126.062-.125.063-.126.062-.125.065-.125.065-.123.066-.124.066-.122.065-.122.068-.122.068-.122.07-.12.07-.12.07-.122.072-.12.073-.118.072-.118.074-.12.074-.116.075-.118.074-.117.076-.115.077-.116.078-.116.078-.115.08-.115.078-.114.08-.112.082-.113.08-.112.084-.112.082-.11.083-.112.086-.11.084-.11.086-.11.085-.107.088-.107.087-.108.087-.107.09-.106.088-.107.09-.105.09-.106.09-.104.093-.103.092-.103.094-.103.092-.1.093-.103.096-.1.095-.1.097-.1.096-.1.097-.1.097-.097.098-.098.1-.097.1-.097.098-.095.1-.096.102-.094.1-.095.103-.093.103-.092.103-.092.104-.09.104-.092.104-.09.107-.09.104-.09.106-.088.108-.088.107-.086.11-.087.108-.088.108-.084.11-.086.112-.083.11-.085.11-.083.113-.08.112-.083.113-.082.113-.08.114-.08.114-.078.117-.08.115-.075.116-.077.116-.077.117-.074.118-.074.117-.075.12-.073.117-.073.12-.07.12-.07.12-.073.12-.07.12-.068.122-.07.122-.067.123-.067.122-.067.123-.066.124-.064.123-.065.124-.064.125-.06.125-.063.126-.06.126-.06.126-.06.127-.06.128-.058.128-.058.13-.057.128-.056.128-.056.13-.055.13-.055.13-.052.132-.052.13-.05.132-.05.13-.05.134-.05.133-.048.133-.047.134-.046.133-.047.134-.045.133-.044.135-.044.136-.043.135-.04.135-.042.136-.04.138-.04.137-.037.138-.04.137-.035.138-.036.138-.035.14-.034.138-.034.14-.033.138-.03.14-.032.14-.03.142-.03.14-.028.142-.027.14-.026.143-.027.14-.025.144-.024.143-.022.142-.022.142-.022.144-.02.143-.02.144-.018.144-.02.145-.015.145-.016.145-.015.145-.015.146-.013.146-.014.146-.01.147-.012.147-.01.147-.008.147-.008.147-.006.15-.007.147-.006.148-.003.15-.003.147-.002h.596l.15.002.147.003.148.004.148.007.15.007.146.006.147.008.147.01.147.008.147.01.146.012.146.014.146.013.145.014.146.014.144.017.145.017.144.02.145.018.145.02.143.02.143.02.144.023.143.023.142.025.14.025.143.027.14.026.143.027.14.03.14.03.14.028.142.03.14.033.138.034.14.034.138.034.138.035.138.036.138.036.137.038.137.038.137.04.135.04.136.04.136.04.136.044.135.044.134.044.135.045.134.046.132.045.133.047.133.048.133.05.132.05.132.05.13.05.13.053.132.052.13.054.13.054.128.055.13.055.128.057.127.057.128.057.126.06.127.06.127.06.126.06.125.062.125.06.124.065.124.065.125.064.124.065.12.066.124.067.122.067.122.07.12.068.12.07.12.07.12.072.12.07.118.074.12.073.116.075.117.074.116.075.116.078.116.077.116.076.115.08.113.078.114.08.113.08.113.08.112.083.112.082.11.083.11.084.112.082.11.086.108.084.108.087.11.086.106.086.108.088.106.09.107.088.105.09.104.09.104.09.105.093.104.093.103.092.102.093.1.095.102.094.1.096.1.095.1.097.098.097.098.098.097.098.097.098.097.1.095.1.094.1.095.1.093.103.095.1.092.104.092.103.092.103.09.104.09.106.09.105.09.107.088.106.087.107.087.108.087.108.084.11.086.11.084.11.085.108.082.11.083.113.082.113.08.112.082.113.08.113.078.115.08.114.077.114.078.115.077.115.076.116.075.118.076.118.073.117.073.12.073.117.072.12.07.118.07.12.072.12.07.122.067.122.068.122.067.122.065.122.066.124.065.123.065.124.062.124.063.125.062.124.062.127.06.127.06.126.06.127.057.127.056.13.057.127.056.13.054.128.053.13.054.13.054.13.053.13.05.132.052.13.048.133.05.133.046.133.05.132.045.133.045.134.045.135.044.134.044.136.04.135.043.137.043.136.04.136.04.136.037.136.037.138.038.137.036.14.036.137.034.138.034.14.032.14.032.138.032.14.03.14.03.14.027.142.028.14.026.143.027.14.024.143.026.143.023.143.022.144.02.142.02.143.02.144.02.144.017.145.017.145.016.145.016.145.013.146.013.146.012.146.012.146.01.147.01.147.01.147.008.147.006.15.007.146.005.148.005.148.003.15.002.147.002.148v.3l-.002.147-.002.15-.003.147-.005.148-.004.15-.006.147-.006.147-.008.147-.01.148-.01.147-.01.146-.012.148-.012.146-.013.145-.014.144-.017.145-.016.145-.018.144-.018.144-.02.143-.02.144-.02.145-.02.143-.023.143-.024.144-.025.142-.023.142-.026.143-.025.142-.028.14-.028.142-.03.14-.03.14-.032.14-.032.14-.032.14-.034.138-.034.14-.035.138-.035.137-.038.138-.037.137-.038.137-.04.136-.04.137-.04.135-.043.136-.042.135-.044.134-.044.134-.045.134-.046.134-.047.134-.05.133-.046.133-.05.13-.048.134-.052.13-.05.132-.054.13-.053.13-.053.13-.053.13-.055.13-.057.128-.057.128-.057.13-.06.126-.06.127-.058.13-.06.125-.062.125-.062.126-.063.125-.062.125-.065.124-.065.123-.066.123-.065.123-.067.122-.068.12-.068.122-.07.122-.07.12-.07.12-.072.12-.072.12-.073.118-.074.117-.074.12-.075.117-.074.116-.076.117-.077.116-.078.115-.078.115-.08.115-.078.113-.08.115-.082.11-.08.114-.083.112-.083.11-.083.112-.086.11-.084.11-.086.11-.085.108-.088.108-.087.108-.087.106-.09.108-.088.105-.09.104-.09.106-.09.104-.093.104-.092.103-.092.103-.095.104-.093.1-.096.1-.095.102-.096.1-.098.098-.097.1-.097.097-.098.098-.1.097-.098.096-.1.096-.1.095-.102.094-.1.096-.103.093-.103.092-.103.092-.104.09-.104.093-.104.09-.105.09-.107.09-.106.087-.108.088-.107.088-.11.086-.107.086-.11.086-.11.084-.11.085-.11.083-.11.082-.113.082-.112.082-.113.08-.113.08-.114.08-.114.08-.116.077-.116.078-.116.078-.116.075-.117.076-.118.074-.117.073-.12.074-.117.073-.12.072-.12.072-.12.07-.12.07-.12.07-.122.067-.122.068-.123.067-.12.065-.125.066-.124.066-.123.063-.124.063-.125.062-.125.063-.126.06-.126.06-.126.06-.126.06-.13.057-.126.058-.128.056-.13.055-.128.056-.13.055-.13.054-.13.05-.13.054-.132.05-.132.05-.13.052-.134.048-.133.048-.133.047-.133.046-.135.045-.134.046-.133.045-.135.044-.136.043-.135.042-.135.04-.136.04-.138.04-.137.038-.137.037-.138.037-.138.035-.138.037-.14.034-.138.033-.14.033-.138.032-.14.03-.14.032-.142.028-.14.03-.142.026-.14.03-.143.024-.14.025-.143.023-.143.023-.143.022-.142.022-.143.02-.144.02-.144.02-.144.017-.145.018-.144.015-.146.015-.145.015-.146.014-.146.012-.146.012-.147.01-.147.01-.147.008-.147.01-.147.006-.15.005-.147.006-.148.004-.148.003-.15.003h-.148l-.15.002zm0-5.5h.114l.114-.002h.114l.113-.004.114-.004.112-.004.112-.005.113-.005.113-.007.112-.006.112-.01.112-.007.11-.008.113-.01.11-.01.11-.01.11-.013.112-.012.11-.013.11-.014.11-.014.11-.016.11-.016.107-.016.108-.017.108-.018.11-.018.107-.02.108-.02.11-.02.105-.02.108-.023.106-.022.107-.023.106-.023.105-.025.107-.025.105-.025.105-.027.106-.026.105-.027.104-.03.105-.028.103-.028.104-.032.103-.03.103-.03.103-.033.104-.032.102-.033.102-.034.103-.034.103-.034.1-.036.1-.035.102-.037.1-.038.1-.037.1-.038.1-.04.1-.04.1-.04.098-.04.1-.04.097-.043.097-.043.098-.04.097-.045.097-.044.096-.044.096-.046.097-.045.094-.047.096-.048.095-.047.094-.048.094-.048.094-.05.093-.05.095-.05.093-.05.093-.053.093-.052.092-.053.093-.054.09-.053.092-.055.09-.055.09-.055.09-.056.09-.056.09-.057.09-.06.087-.056.09-.06.087-.058.088-.06.086-.06.087-.06.087-.06.085-.062.087-.063.084-.06.085-.065.085-.064.084-.062.084-.065.083-.065.082-.066.082-.065.083-.067.082-.067.08-.067.08-.068.08-.07.08-.068.08-.07.08-.07.078-.07.08-.07.077-.072.078-.072.077-.072.077-.073.075-.072.076-.074.076-.073.074-.074.075-.075.075-.074.073-.076.074-.077.073-.075.07-.078.074-.077.072-.078.07-.08.072-.078.07-.08.07-.08.067-.078.07-.082.068-.08.067-.083.067-.08.067-.083.065-.082.066-.084.065-.083.065-.084.065-.085.063-.085.063-.084.064-.086.062-.085.06-.086.063-.087.06-.087.06-.088.06-.086.058-.088.058-.09.058-.088.057-.09.058-.088.056-.09.056-.09.056-.09.055-.09.055-.092.054-.09.052-.093.053-.092.052-.09.05-.095.052-.093.05-.093.05-.095.05-.094.047-.093.05-.095.047-.095.047-.095.047-.097.046-.095.045-.097.045-.096.044-.097.044-.098.044-.097.043-.098.04-.1.043-.096.04-.098.04-.1.04-.1.04-.098.037-.1.04-.1.036-.1.036-.102.036-.1.035-.102.036-.102.034-.102.033-.102.033-.102.032-.103.032-.104.03-.103.032-.103.03-.105.03-.104.027-.103.027-.104.027-.106.027-.104.027-.106.025-.106.025-.104.025-.106.023-.107.023-.106.023-.107.022-.107.02-.108.02-.107.02-.108.02-.108.018-.108.018-.11.016-.107.017-.11.016-.108.016-.11.014-.11.014-.11.012-.11.013-.11.01-.112.012-.11.01-.112.01-.11.01-.112.008-.112.006-.112.01-.113.004-.112.006-.113.004-.113.005-.114.002-.113.002-.114.002-.114v-.457l-.002-.115-.002-.113-.003-.114-.006-.113-.004-.113-.006-.112-.005-.113-.01-.112-.005-.11-.01-.113-.008-.112-.01-.11-.01-.113-.01-.11-.012-.11-.013-.11-.012-.11-.014-.112-.014-.11-.016-.108-.015-.11-.016-.11-.016-.108-.018-.11-.018-.107-.02-.11-.02-.107-.02-.107-.02-.11-.02-.105-.024-.107-.023-.107-.023-.105-.025-.106-.025-.107-.025-.105-.026-.106-.026-.105-.027-.104-.028-.106-.03-.104-.03-.104-.028-.104-.03-.104-.032-.104-.032-.103-.032-.102-.033-.103-.033-.102-.034-.1-.035-.103-.034-.102-.037-.1-.037-.1-.037-.102-.04-.098-.037-.1-.04-.1-.04-.1-.04-.1-.04-.097-.042-.1-.04-.098-.044-.098-.043-.097-.043-.098-.044-.097-.045-.097-.045-.094-.046-.097-.046-.096-.046-.096-.048-.095-.05-.095-.047-.094-.05-.094-.05-.095-.05-.093-.052-.093-.05-.093-.053-.093-.053-.092-.053-.092-.055-.09-.054-.092-.054-.09-.056-.092-.056-.09-.056-.09-.057-.09-.056-.088-.058-.09-.058-.086-.06-.088-.058-.088-.06-.087-.06-.088-.063-.086-.06-.087-.063-.086-.063-.085-.062-.086-.063-.085-.065-.084-.065-.085-.064-.082-.065-.082-.066-.083-.068-.082-.067-.08-.067-.082-.068-.08-.07-.082-.067-.08-.07-.08-.07-.08-.07-.078-.07-.078-.072-.078-.072-.077-.07-.077-.074-.077-.073-.076-.072-.076-.075-.074-.075-.076-.074-.074-.076-.074-.076-.073-.075-.074-.077-.072-.077-.072-.078-.07-.078-.072-.08-.072-.077-.07-.08-.07-.08-.07-.08-.068-.08-.068-.08-.068-.08-.068-.083-.067-.083-.066-.082-.068-.083-.065-.085-.066-.083-.063-.084-.064-.084-.064-.086-.064-.085-.063-.086-.06-.085-.063-.087-.06-.087-.062-.086-.06-.088-.06-.088-.058-.09-.06-.087-.057-.09-.057-.09-.057-.09-.058-.09-.056-.09-.055-.09-.053-.09-.054-.092-.054-.093-.055-.092-.052-.092-.052-.092-.05-.093-.052-.094-.05-.092-.05-.094-.05-.095-.05-.095-.046-.095-.048-.096-.047-.095-.046-.098-.045-.096-.045-.097-.045-.098-.045-.097-.043-.098-.044-.097-.042-.098-.042-.1-.04-.098-.04-.098-.04-.1-.04-.1-.04-.1-.038-.1-.038-.1-.037-.102-.037-.1-.036-.1-.035-.103-.035-.102-.034-.102-.034-.102-.033-.103-.03-.102-.033-.103-.03-.103-.03-.104-.03-.103-.03-.106-.03-.105-.026-.104-.027-.105-.027L64.92 6l-.105-.026-.107-.024-.106-.024-.105-.024-.108-.023-.107-.023-.108-.022-.106-.02-.11-.02-.107-.02-.108-.02-.11-.018-.107-.017-.11-.018-.107-.015-.11-.017-.11-.014-.11-.014-.108-.014-.11-.013-.11-.013-.112-.01-.11-.01-.11-.012-.112-.01-.112-.01-.112-.007-.112-.007-.112-.007-.113-.007-.113-.005-.112-.006-.114-.003-.113-.004-.113-.002-.114-.002-.114-.002h-.228l-.114.002-.114.002-.113.002-.113.003-.114.002-.112.006-.113.005-.113.006-.112.006-.112.007-.112.008-.112.01-.11.01-.112.01-.11.01-.11.012-.112.013-.11.013-.11.014-.11.014-.11.014-.11.017-.107.015-.108.018-.108.017-.11.02-.106.018-.11.02-.107.02-.105.02-.108.022-.106.022-.107.022-.105.024-.106.024-.107.024L56.56 6l-.105.026-.106.027-.105.028-.104.028-.104.03-.104.028-.104.03-.103.03-.103.03-.103.033-.104.03-.102.034-.102.034-.102.034-.102.035-.1.035-.102.036-.1.037-.102.037-.1.038-.1.038-.1.04-.1.04-.098.04-.1.04-.098.04-.097.043-.097.043-.098.044-.097.043-.097.045-.095.045-.097.045-.097.046-.094.047-.095.047-.095.047-.094.05-.094.05-.094.048-.093.05-.094.05-.094.05-.093.053-.093.053-.092.052-.092.054-.092.053-.09.054-.09.054-.09.056-.09.056-.09.057-.09.056-.09.057-.087.058-.09.06-.087.06-.088.058-.086.06-.087.06-.087.062-.085.062-.086.06-.085.064-.085.063-.084.063-.085.064-.083.064-.083.067-.084.065-.082.067-.082.065-.083.067-.08.068-.08.068-.08.068-.08.07-.08.068-.08.07-.078.07-.08.072-.077.07-.078.072-.077.073-.077.073-.075.074-.076.073-.076.075-.074.073-.075.076-.075.074-.073.076-.073.077-.074.078-.07.077-.074.077-.072.078-.07.078-.072.08-.07.078-.07.08-.067.08-.07.08-.068.082-.067.08-.067.083-.067.083-.065.083-.065.082-.065.083-.065.085-.065.084-.063.084-.063.085-.063.084-.063.085-.06.086-.063.087-.06.086-.06.086-.06.088-.058.088-.058.087-.058.088-.057.09-.058.09-.056.088-.056.09-.056.09-.055.092-.055.09-.054.092-.052.092-.053.092-.052.093-.05.092-.052.092-.05.093-.05.095-.05.094-.047.094-.048.095-.05.095-.045.096-.047.095-.046.096-.045.095-.045.098-.044.097-.044.097-.044.097-.042.098-.042.098-.042.1-.04.097-.04.1-.04.1-.04.098-.037.102-.04.1-.035.1-.037.1-.035.1-.035.103-.036.1-.034.103-.033.102-.032.103-.033.102-.032.103-.03.104-.032.104-.03.103-.03.103-.027.104-.027.106-.027.104-.027.105-.027.106-.025.105-.025.106-.024.105-.025.106-.023.108-.023.107-.02.106-.022.11-.02.106-.02.108-.02.11-.018.107-.018.11-.016.108-.017.11-.016.11-.015.107-.016.11-.014.11-.012.11-.013.11-.01.11-.012.112-.01.112-.01.11-.01.112-.007.112-.007.11-.01.113-.004.113-.006.112-.004.113-.004.113-.004.114-.002.113-.002.114v.456l.002.113.002.113.004.113.004.113.004.112.006.113.005.112.01.113.006.112.008.112.01.11.01.112.01.11.01.112.01.11.014.11.012.11.014.11.015.11.014.11.015.11.016.11.016.107.018.11.018.108.02.107.02.108.02.107.02.108.02.107.024.107.023.106.024.107.023.106.025.105.025.108.026.105.026.104.027.106.028.104.03.104.03.105.028.105.03.103.032.103.032.103.033.102.032.102.033.102.034.102.036.102.035.1.036.102.038.1.036.102.04.1.037.1.04.1.04.098.04.1.04.1.042.096.042.1.042.097.043.097.043.098.044.097.045.096.045.097.046.095.046.097.046.095.05.095.047.095.048.094.05.095.05.094.05.092.052.093.05.094.053.09.053.093.053.092.055.09.054.092.054.09.056.09.056.09.056.09.057.09.056.09.058.088.058.09.06.087.06.086.06.088.06.087.06.086.062.085.063.085.062.086.062.084.063.085.065.084.065.083.065.083.065.084.066.082.068.082.067.08.067.083.068.08.07.08.067.08.07.08.07.08.07.08.07.078.072.078.072.077.07.078.075.075.072.077.072.076.075.075.075.076.074.075.076.074.076.074.075.073.077.074.077.072.078.072.078.072.08.07.077.07.08.07.08.07.08.07.08.068.08.068.08.067.084.067.082.067.082.065.084.066.082.065.084.065.085.063.084.065.085.064.085.06.086.064.085.06.087.06.087.063.086.06.088.06.088.058.09.06.087.056.09.06.09.056.09.056.09.056.09.055.09.055.09.055.093.053.092.053.092.052.092.052.092.052.094.05.093.05.092.05.094.05.095.05.095.047.096.047.096.048.095.047.098.045.097.046.096.045.098.045.097.044.098.04.098.044.098.042.1.042.098.04.098.04.1.04.1.04.1.037.1.037.1.038.102.037.1.035.102.036.102.034.102.034.102.034.102.033.103.032.102.032.103.032.103.028.104.03.104.03.105.028.105.03.104.026.105.026.105.027.105.025.107.025.106.024.105.022.108.023.107.022.108.022.106.02.11.02.108.02.107.02.11.017.107.018.11.017.107.016.11.016.11.015.11.013.108.014.11.013.11.012.112.012.11.01.11.01.113.01.11.01.113.007.112.01.112.005.113.007.113.005.112.005.114.004.113.003.113.002h.114l.114.002h.114z"/><path d="M52.027 24.324l8.563 7.486 9.948-17.194" fill="none" stroke-width="5.5" stroke="#000"/></svg>