<svg xmlns="http://www.w3.org/2000/svg" xmlns:xlink="http://www.w3.org/1999/xlink" version="1.1" x="0px" y="0px" viewBox="0 0 100 100" enable-background="new 0 0 100 100" xml:space="preserve"><path d="M64.713,19.954c-13.312-13.307-34.888-13.307-48.201,0c-13.306,13.316-13.306,34.901,0,48.204  c11.475,11.488,29.102,13.035,42.27,4.71l17.917,17.916l10.63-10.636L69.421,62.237C77.747,49.068,76.191,31.442,64.713,19.954z   M57.236,60.682c-9.179,9.176-24.067,9.176-33.238,0c-9.188-9.183-9.188-24.067,0-33.242c9.17-9.184,24.059-9.184,33.238,0  C66.41,36.614,66.41,51.499,57.236,60.682z"></path></svg>