<svg viewBox="0 0 100 100" xmlns="http://www.w3.org/2000/svg" fill-rule="evenodd" clip-rule="evenodd" stroke-linejoin="round" stroke-miterlimit="1.414"><g fill-rule="nonzero"><path d="M49.983 94.966C25.175 94.966 5 74.778 5 49.978 5 25.18 25.175 5 49.983 5 74.79 5 94.966 25.18 94.966 49.978c0 24.8-20.175 44.988-44.983 44.988zm0-81.19c-19.956 0-36.203 16.24-36.203 36.2 0 19.963 16.247 36.207 36.203 36.207 19.967 0 36.212-16.244 36.212-36.206 0-19.962-16.245-36.202-36.212-36.202z"/><path d="M49.983 52.43c-2.415 0-4.38-1.966-4.38-4.386l-.01-23.34c0-2.426 1.964-4.39 4.39-4.39 2.436 0 4.39 1.958 4.39 4.39v23.34c0 2.42-1.954 4.385-4.368 4.385h-.022z"/><path d="M49.983 75.316c-13.92 0-25.225-11.305-25.225-25.23 0-8.006 3.676-15.366 10.077-20.18 1.953-1.46 4.697-1.07 6.146.867 1.46 1.943 1.078 4.693-.854 6.147-4.192 3.145-6.597 7.942-6.597 13.167 0 9.072 7.386 16.46 16.454 16.46 9.078 0 16.455-7.388 16.455-16.46 0-5.22-2.395-10.017-6.576-13.156-1.933-1.452-2.328-4.21-.856-6.14 1.45-1.94 4.193-2.332 6.136-.873 6.41 4.813 10.077 12.163 10.077 20.17 0 13.926-11.32 25.23-25.236 25.23z"/></g></svg>