<svg viewBox="0 0 100 100" xmlns="http://www.w3.org/2000/svg" fill-rule="evenodd" clip-rule="evenodd" stroke-linejoin="round" stroke-miterlimit="1.414"><path d="M16.716 83.302V53.048h30.256v30.254H16.716zm6.053-6.052h18.15V59.1H22.77v18.15z" fill-rule="nonzero"/><path d="M26.57 62.9h10.55v10.55H26.57z"/><path d="M16.716 46.952V16.698h30.256v30.254H16.716zM22.77 40.9h18.15V22.75H22.77V40.9z" fill-rule="nonzero"/><path d="M26.57 26.55h10.55V37.1H26.57z"/><path d="M53.027 46.952V16.698h30.256v30.254H53.027zM59.08 40.9h18.15V22.75H59.08V40.9z" fill-rule="nonzero"/><path d="M62.88 26.55h10.55V37.1H62.88zm-9.852 26.5h5.88v5.882h-5.88zm11.755-.003h5.88v5.88h-5.88zm12.105 0h5.88v5.88h-5.88zM53.028 70.68h5.88v5.88h-5.88zm5.874-5.882h5.88v5.88h-5.88zm5.88-5.87h5.88v5.88h-5.88zm5.882 5.87h5.88v5.88h-5.88zm-5.88 5.882h5.88v5.88h-5.88z"/><path d="M10.79 95.284c-.383-.013-.48-.007-.86-.062-.428-.06-.85-.168-1.254-.32-.81-.302-1.553-.778-2.165-1.39-.71-.714-1.24-1.606-1.524-2.575-.123-.414-.2-.843-.23-1.274-.01-.144-.01-.287-.015-.43V10.767c.004-.144.004-.288.015-.432.03-.43.107-.86.23-1.274.284-.966.814-1.86 1.527-2.57.614-.614 1.356-1.09 2.167-1.393.404-.15.825-.26 1.253-.32.38-.055.478-.05.86-.063h78.42c.384.014.48.008.86.062.43.062.85.17 1.255.32.947.354 1.8.945 2.46 1.708.566.654.988 1.428 1.233 2.257.12.416.2.844.23 1.275.01.144.01.288.016.432V89.23c-.006.144-.006.287-.016.43-.03.432-.108.86-.23 1.275-.283.97-.813 1.86-1.527 2.574-.612.612-1.355 1.09-2.166 1.39-.404.15-.825.26-1.253.32-.38.055-.476.05-.86.06H10.79zm0-6.052h78.42V10.768H10.79v78.464z" fill-rule="nonzero"/></svg>