<svg xmlns="http://www.w3.org/2000/svg" viewBox="0 0 100 100"><path d="M63.07 28.597l-38.14 22.02c-.47.27-.63.87-.36 1.338l11.022 19.09c.27.467.87.628 1.337.357l38.14-22.02c.47-.27.63-.87.36-1.338l-11.024-19.09c-.27-.467-.87-.627-1.337-.357zM57.32 44.15l-2.093 5.323c-.06.214-.01.444.13.614l4.058 3.91c.324.39.183.938-.207 1.163-.103.06-.223.096-.357.1l-5.643-.34c-.11.005-.217.037-.31.09-.094.055-.175.13-.234.225l-2.528 5.06c-.07.113-.163.2-.266.258-.39.225-.937.072-1.113-.403L47.4 54.682c-.078-.208-.25-.365-.468-.42l-5.658-.848c-.62-.158-.79-.96-.288-1.355l4.845-2.977c.175-.138.27-.352.256-.574l-1.006-5.65c-.02-.32.145-.58.384-.72.24-.137.55-.15.815.028l4.39 3.694c.183.123.416.148.623.066l4.998-2.708c.597-.238 1.206.31 1.03.927z"/><path d="M75.543 20.242c-3.348 1.933-7.63.786-9.562-2.562-.55-.957-1.772-1.284-2.73-.732l-48.496 28c-.957.552-1.284 1.775-.732 2.732 1.934 3.348.787 7.63-2.56 9.562-.958.552-1.285 1.775-.733 2.732l11 19.053c.55.957 1.774 1.284 2.73.732 3.348-1.936 7.63-.79 9.56 2.56.554.956 1.777 1.283 2.734.73l48.497-28c.957-.55 1.284-1.774.73-2.73-1.93-3.348-.784-7.63 2.564-9.56.957-.554 1.284-1.777.732-2.734l-11-19.053c-.552-.957-1.775-1.285-2.732-.732zm2.484 26.303c1.097 1.9.444 4.338-1.456 5.435L38.43 74c-1.9 1.098-4.34.445-5.436-1.455l-11.02-19.09c-1.098-1.9-.445-4.338 1.455-5.435L61.57 26c1.9-1.098 4.34-.445 5.436 1.455l11.02 19.09z"/></svg>