<svg xmlns="http://www.w3.org/2000/svg" viewBox="0 0 100 100"><path fill="none" d="M72.02 35H27.98C25.784 35 24 36.785 24 38.98v22.04c0 2.195 1.785 3.98 3.98 3.98h44.04c2.195 0 3.98-1.785 3.98-3.98V38.98c0-2.195-1.785-3.98-3.98-3.98zM73 61.02c0 .542-.438.98-.98.98H27.98c-.542 0-.98-.438-.98-.98V38.98c0-.542.438-.98.98-.98h44.04c.542 0 .98.438.98.98v22.04z"/><path fill="none" d="M58.838 47.275l-5.683-.153c-.22-.032-.41-.17-.508-.37l-1.954-5.395c-.142-.287-.417-.43-.693-.43s-.55.143-.693.43l-1.954 5.396c-.098.2-.288.337-.508.37l-5.683.152c-.634.092-.887.87-.428 1.318l4.476 3.563c.16.155.232.378.194.597l-1.56 5.414c-.085.5.312.905.762.905.12 0 .24-.028.36-.09l4.72-3.118c.098-.052.206-.078.314-.078.108 0 .216.026.314.078l4.72 3.118c.118.062.24.09.36.09.45 0 .847-.406.76-.905l-1.558-5.414c-.038-.22.035-.442.194-.597l4.476-3.563c.458-.447.205-1.226-.428-1.318z"/><path d="M82 50.188c0-3.572 2.676-6.52 6.132-6.947.497-.06.868-.482.868-.983V31c0-1.657-1.343-3-3-3H14c-1.657 0-3 1.343-3 3v10.88c0 .5.37.924.868.986C15.324 43.293 18 46.24 18 49.812c0 3.572-2.676 6.52-6.132 6.947-.497.06-.868.482-.868.983V69c0 1.657 1.343 3 3 3h72c1.657 0 3-1.343 3-3V58.12c0-.5-.37-.924-.868-.986C84.676 56.707 82 53.76 82 50.188zM76 61.02c0 2.195-1.785 3.98-3.98 3.98H27.98C25.784 65 24 63.215 24 61.02V38.98c0-2.195 1.785-3.98 3.98-3.98h44.04c2.195 0 3.98 1.785 3.98 3.98v22.04z"/><path d="M72.02 38H27.98c-.542 0-.98.438-.98.98v22.04c0 .542.438.98.98.98h44.04c.542 0 .98-.438.98-.98V38.98c0-.542-.438-.98-.98-.98zM59.267 48.593l-4.476 3.563c-.16.155-.23.378-.193.597l1.56 5.414c.085.5-.312.905-.762.905-.12 0-.24-.028-.36-.09l-4.72-3.118c-.098-.052-.206-.078-.314-.078-.107 0-.215.026-.313.078l-4.72 3.118c-.118.062-.24.09-.36.09-.45 0-.847-.406-.76-.905l1.558-5.414c.038-.22-.035-.442-.194-.597l-4.475-3.563c-.458-.447-.206-1.226.428-1.318l5.683-.153c.22-.032.41-.17.508-.37l1.954-5.395c.142-.287.417-.43.693-.43s.55.143.694.43l1.954 5.396c.098.2.288.337.508.37l5.683.152c.632.092.885.87.427 1.318z"/></svg>