<svg viewBox="0 0 100 100" xmlns="http://www.w3.org/2000/svg" fill-rule="evenodd" clip-rule="evenodd" stroke-linejoin="round" stroke-miterlimit="1.414"><path d="M30.49 89.068h.074c.085-.002.17-.005.256-.012h.003l.05-.004h.007l.048-.005h.01l.043-.006h.016l.04-.003.016-.002.04-.005.017-.003.036-.006h.02l.035-.006.02-.004.034-.007.02-.003.034-.008.022-.004.03-.006.024-.005.032-.007.023-.005.03-.007.023-.005.03-.008.024-.005.03-.008.025-.006.03-.01.025-.005.03-.006.024-.007.035-.01.022-.006.036-.01.018-.007.055-.017.587-.196 10.52-3.506 3.694-1.23 30.9-10.294c2.276-.76 3.51-3.228 2.752-5.504l-7.62-22.874c-.38-1.138-1.188-2.016-2.184-2.515l-.058-.028-.09-.045-.006-.002-.086-.038-.01-.004-.083-.033-.012-.007-.08-.03-.018-.006-.078-.028-.02-.007-.076-.026-.024-.008-.073-.022-.028-.008-.07-.02-.03-.008-.07-.02-.032-.007-.067-.014-.035-.01-.065-.012-.038-.008-.064-.01-.04-.008-.06-.01-.04-.005-.062-.01-.043-.004-.06-.006-.045-.004-.06-.004-.047-.003-.058-.004h-.048l-.056-.005h-.225l-.095.004h-.013l-.094.006h-.012l-.092.01h-.01l-.095.01-.012.002-.092.01-.01.003-.096.016-.023.003-.027.005-.027.005-.026.006-.027.006-.027.005-.028.005-.025.006-.028.007-.025.006-.03.01-.023.005-.03.008-.024.006-.03.007-.023.006-.03.01-.023.005-.03.01-.023.005-.033.01-.017.007-.054.016-6.756 2.25-4.69 1.563-9.585 3.19-12.664 4.22-12.007 4-.08.027-.016.005-.077.03-.014.004-.08.032-.005.002-.075.03-.01.006-.075.034-.015.006-.074.035-.01.006-.07.035-.01.005-.072.037-.013.007-.07.04-.014.006-.07.04v.002l-.07.042-.014.008-.065.042-.012.01-.068.044-.005.002-.065.045-.01.008-.064.047-.01.01-.036.027-.05.04-.03.023-.05.04-.028.024-.05.044-.026.02-.072.066-.007.008-.063.062-.024.024-.046.045-.027.03-.042.04-.027.03-.04.046-.025.027-.045.054-.02.02-.06.075-.018.02-.043.057-.024.03-.036.047-.024.033-.034.05-.024.032-.034.05-.02.032-.04.063-.015.02-.05.08-.018.033-.03.05-.02.038-.028.048-.02.04-.025.047-.02.04-.024.05-.017.038-.032.07-.006.017-.014.035-.023.054-.016.044-.02.046-.016.046-.017.045-.016.048-.015.044-.016.047-.014.042c-.02.062-.037.126-.054.19l-.01.037-.014.056-.01.038-.012.058-.008.036-.012.06-.006.03-.012.066-.002.014c-.014.08-.025.158-.034.237l-.003.025-.008.07-.002.025-.006.07v.023l-.006.075v.01c-.007.177-.005.357.01.537.026.345.095.693.21 1.036l7.62 22.875.023.07.007.018.026.07.027.068.006.018.026.07.03.066.007.016.03.067.03.066.01.014.032.066.034.066.006.012.035.063.038.065.005.01.038.063.04.066.006.005.04.064.047.066.045.065c.74 1.03 1.896 1.686 3.146 1.8l.055.005.045.004h.02l.045.003h.036l.034.003h.04l.025.002h.08zm37.753-43.466L22.54 60.827c-.56.187-.864.793-.676 1.354l7.62 22.876c.186.56.792.864 1.353.677L76.54 70.507c.56-.187.864-.793.676-1.354l-7.62-22.873c-.186-.562-.793-.865-1.353-.678zm-9.575 15.402l-3.412 5.245c-.11.213-.11.47.006.684l3.49 5.08c.26.488-.01 1.045-.478 1.2-.123.04-.26.055-.405.03L51.89 71.64c-.12-.02-.24-.01-.353.03-.11.04-.215.1-.3.19l-3.82 4.866c-.1.105-.217.177-.34.218-.468.156-1.02-.128-1.104-.676l-.254-6.16c-.037-.24-.19-.445-.408-.55l-5.876-2.15c-.633-.307-.64-1.203-.014-1.517l5.844-2.122c.218-.11.368-.317.4-.558l.163-6.275c.048-.347.285-.59.57-.686.287-.094.62-.04.868.21l3.893 4.923c.17.172.416.25.656.208l5.95-1.804c.69-.125 1.222.596.9 1.22zM19.306 50.377l4.69-1.563 17.47-30.256c.295-.51.95-.687 1.462-.392l20.88 12.055c.51.298.686.95.39 1.465l-2.672 4.63 4.692-1.564.823-1.425c1.2-2.078.488-4.744-1.59-5.944L44.57 15.326c-2.08-1.2-4.745-.485-5.945 1.593l-19.318 33.46zm15.656-5.215l10.354-3.45-.792-5.278c-.172-.68-1.05-.866-1.482-.315l-3.253 5.3c-.154.19-.39.29-.63.276l-6.18-1.1c-.35-.023-.636.158-.787.42-.152.26-.167.6.028.89l2.74 3.254zm39.415-9.23c1.773 3.1 5.543 4.627 9.063 3.455 1.147-.383 2.385.237 2.767 1.384l7.605 22.83c.38 1.15-.237 2.387-1.384 2.77-4.012 1.335-6.18 5.67-4.844 9.682.382 1.148-.237 2.386-1.384 2.768L28.09 98.18c-1.146.38-2.385-.238-2.766-1.385-1.336-4.012-5.672-6.18-9.683-4.844-1.144.38-2.383-.237-2.764-1.384L5.27 67.736c-.383-1.148.236-2.386 1.383-2.768.165-.055.327-.115.486-.18-.49-.51-1.06-.96-1.7-1.33-1.048-.604-1.407-1.94-.8-2.987L35.26 7.43c.605-1.046 1.942-1.405 2.988-.8 3.663 2.113 8.345.86 10.46-2.803.603-1.047 1.94-1.405 2.987-.8l20.84 12.03c1.046.605 1.405 1.943.8 2.99-2.114 3.66-.86 8.343 2.803 10.457 1.047.606 1.406 1.943.8 2.99l-2.563 4.44z"/></svg>