<svg xmlns="http://www.w3.org/2000/svg" viewBox="0 0 100 100"><path d="M50 5C25.147 5 5 25.148 5 50c0 24.855 20.147 45 45 45 24.854 0 45-20.145 45-45C95 25.148 74.854 5 50 5zm16.068 25.51c-3.118-5.192-9.01-8.05-16.595-8.05-7.635 0-13.566 2.906-16.7 8.184-3.13 5.268-4.836 15.256 4.792 32.92 1.58 2.9 2.002 5.216 1.25 6.888-.977 2.167-4.113 3.877-9.327 5.074-1.94.444-3.89 1.112-5.7 1.936C16.55 70.546 12.03 60.804 12.03 50c0-20.973 17-37.974 37.972-37.974 20.97 0 37.972 17 37.972 37.974 0 10.94-4.634 20.795-12.04 27.725-2.29-1.012-4.627-1.777-6.468-2.2-5.195-1.193-8.325-2.88-9.3-5.017-.758-1.664-.346-4.008 1.23-6.967 9.52-17.876 7.795-27.83 4.674-33.03z"/></svg>